<mxfile host="app.diagrams.net" modified="2024-01-25T21:58:44.066Z" agent="Mozilla/5.0 (Windows NT 10.0; Win64; x64) AppleWebKit/537.36 (KHTML, like Gecko) Chrome/121.0.0.0 Safari/537.36" etag="w5q_ueipuVPoPln1XaCx" version="23.0.2" type="device">
  <diagram id="C5RBs43oDa-KdzZeNtuy" name="Page-1">
    <mxGraphModel dx="1843" dy="813" grid="1" gridSize="10" guides="1" tooltips="1" connect="1" arrows="1" fold="1" page="1" pageScale="1" pageWidth="827" pageHeight="1169" math="0" shadow="0">
      <root>
        <mxCell id="WIyWlLk6GJQsqaUBKTNV-0" />
        <mxCell id="WIyWlLk6GJQsqaUBKTNV-1" parent="WIyWlLk6GJQsqaUBKTNV-0" />
        <mxCell id="mJ5BoDZWjUwXYIF-GXy7-41" value="" style="rounded=0;whiteSpace=wrap;html=1;" vertex="1" parent="WIyWlLk6GJQsqaUBKTNV-1">
          <mxGeometry x="61" y="650" width="530" height="320" as="geometry" />
        </mxCell>
        <mxCell id="GZ9siTwBjqYdEHMc3zrV-6" value="&lt;p style=&quot;margin:0px;margin-top:4px;text-align:center;&quot;&gt;&lt;i&gt;&amp;lt;&amp;lt;Interface&amp;gt;&amp;gt;&lt;/i&gt;&lt;br&gt;&lt;b&gt;IGameInterface&lt;/b&gt;&lt;/p&gt;&lt;hr size=&quot;1&quot;&gt;&lt;p style=&quot;margin:0px;margin-left:4px;&quot;&gt;+ getBoard(): Map&amp;lt;String, String&amp;gt;&lt;br&gt;+ onClick(String): OnClickResponse&amp;nbsp;&lt;/p&gt;&lt;p style=&quot;margin:0px;margin-left:4px;&quot;&gt;+ getTurn(): Color&lt;/p&gt;" style="verticalAlign=top;align=left;overflow=fill;fontSize=12;fontFamily=Helvetica;html=1;whiteSpace=wrap;" parent="WIyWlLk6GJQsqaUBKTNV-1" vertex="1">
          <mxGeometry x="375.87" y="290" width="210.5" height="100" as="geometry" />
        </mxCell>
        <mxCell id="GZ9siTwBjqYdEHMc3zrV-9" value="common" style="shape=folder;fontStyle=1;tabWidth=110;tabHeight=30;tabPosition=left;html=1;boundedLbl=1;labelInHeader=1;container=1;collapsible=0;recursiveResize=0;whiteSpace=wrap;" parent="WIyWlLk6GJQsqaUBKTNV-1" vertex="1">
          <mxGeometry x="20" y="70" width="140" height="130" as="geometry" />
        </mxCell>
        <mxCell id="GZ9siTwBjqYdEHMc3zrV-10" value="Colour&lt;br&gt;Direction&lt;br&gt;&lt;div&gt;InvalidMoveException&lt;/div&gt;&lt;div&gt;InvalidPositionException&lt;/div&gt;&lt;div&gt;OnClickResponse&lt;/div&gt;&lt;div&gt;Position&lt;/div&gt;" style="html=1;whiteSpace=wrap;strokeColor=none;align=left;" parent="GZ9siTwBjqYdEHMc3zrV-9" vertex="1">
          <mxGeometry width="110" height="30" relative="1" as="geometry">
            <mxPoint y="65" as="offset" />
          </mxGeometry>
        </mxCell>
        <mxCell id="GZ9siTwBjqYdEHMc3zrV-11" value="abstraction" style="shape=folder;fontStyle=1;tabWidth=110;tabHeight=30;tabPosition=left;html=1;boundedLbl=1;labelInHeader=1;container=1;collapsible=0;recursiveResize=0;whiteSpace=wrap;" parent="WIyWlLk6GJQsqaUBKTNV-1" vertex="1">
          <mxGeometry x="176" y="71" width="126" height="80" as="geometry" />
        </mxCell>
        <mxCell id="GZ9siTwBjqYdEHMc3zrV-12" value="IGameInterface" style="html=1;whiteSpace=wrap;strokeColor=none;" parent="GZ9siTwBjqYdEHMc3zrV-11" vertex="1">
          <mxGeometry width="110" height="30" relative="1" as="geometry">
            <mxPoint x="4" y="40" as="offset" />
          </mxGeometry>
        </mxCell>
        <mxCell id="GZ9siTwBjqYdEHMc3zrV-13" value="main" style="shape=folder;fontStyle=1;tabWidth=110;tabHeight=30;tabPosition=left;html=1;boundedLbl=1;labelInHeader=1;container=1;collapsible=0;recursiveResize=0;whiteSpace=wrap;" parent="WIyWlLk6GJQsqaUBKTNV-1" vertex="1">
          <mxGeometry x="339" y="71" width="121" height="80" as="geometry" />
        </mxCell>
        <mxCell id="GZ9siTwBjqYdEHMc3zrV-14" value="GameMain" style="html=1;whiteSpace=wrap;strokeColor=none;" parent="GZ9siTwBjqYdEHMc3zrV-13" vertex="1">
          <mxGeometry width="110" height="30" relative="1" as="geometry">
            <mxPoint x="5" y="41" as="offset" />
          </mxGeometry>
        </mxCell>
        <mxCell id="GZ9siTwBjqYdEHMc3zrV-15" value="model" style="shape=folder;fontStyle=1;tabWidth=110;tabHeight=30;tabPosition=left;html=1;boundedLbl=1;labelInHeader=1;container=1;collapsible=0;recursiveResize=0;whiteSpace=wrap;" parent="WIyWlLk6GJQsqaUBKTNV-1" vertex="1">
          <mxGeometry x="490" y="71" width="130" height="179" as="geometry" />
        </mxCell>
        <mxCell id="GZ9siTwBjqYdEHMc3zrV-16" value="&lt;div style=&quot;&quot;&gt;BasePiece&lt;/div&gt;Board&lt;br&gt;&lt;div style=&quot;&quot;&gt;&lt;span style=&quot;background-color: initial;&quot;&gt;Bishop&lt;br&gt;Jester&lt;br&gt;King&lt;br&gt;Knight&lt;br&gt;Pawn&lt;br&gt;Queen&lt;br&gt;Rook&lt;br&gt;Wall&lt;/span&gt;&lt;/div&gt;" style="html=1;whiteSpace=wrap;align=left;strokeColor=none;" parent="GZ9siTwBjqYdEHMc3zrV-15" vertex="1">
          <mxGeometry width="70" height="130" relative="1" as="geometry">
            <mxPoint x="14" y="39" as="offset" />
          </mxGeometry>
        </mxCell>
        <mxCell id="GZ9siTwBjqYdEHMc3zrV-18" value="utility" style="shape=folder;fontStyle=1;tabWidth=110;tabHeight=20;tabPosition=left;html=1;boundedLbl=1;labelInHeader=1;container=1;collapsible=0;recursiveResize=0;whiteSpace=wrap;" parent="WIyWlLk6GJQsqaUBKTNV-1" vertex="1">
          <mxGeometry x="650" y="70" width="130" height="100" as="geometry" />
        </mxCell>
        <mxCell id="GZ9siTwBjqYdEHMc3zrV-19" value="&lt;div&gt;BoardAdapter&lt;/div&gt;&lt;div&gt;Log&lt;/div&gt;&lt;div&gt;MovementUtil&lt;/div&gt;&lt;div&gt;Util&lt;/div&gt;" style="html=1;whiteSpace=wrap;align=left;strokeColor=none;" parent="GZ9siTwBjqYdEHMc3zrV-18" vertex="1">
          <mxGeometry width="90" height="60" relative="1" as="geometry">
            <mxPoint x="10" y="26" as="offset" />
          </mxGeometry>
        </mxCell>
        <mxCell id="GZ9siTwBjqYdEHMc3zrV-24" style="edgeStyle=orthogonalEdgeStyle;rounded=0;orthogonalLoop=1;jettySize=auto;html=1;entryX=0.5;entryY=1;entryDx=0;entryDy=0;dashed=1;" parent="WIyWlLk6GJQsqaUBKTNV-1" source="GZ9siTwBjqYdEHMc3zrV-20" target="GZ9siTwBjqYdEHMc3zrV-6" edge="1">
          <mxGeometry relative="1" as="geometry" />
        </mxCell>
        <mxCell id="GZ9siTwBjqYdEHMc3zrV-20" value="GameMain" style="swimlane;fontStyle=1;align=center;verticalAlign=top;childLayout=stackLayout;horizontal=1;startSize=26;horizontalStack=0;resizeParent=1;resizeParentMax=0;resizeLast=0;collapsible=1;marginBottom=0;whiteSpace=wrap;html=1;" parent="WIyWlLk6GJQsqaUBKTNV-1" vertex="1">
          <mxGeometry x="371.25" y="440" width="219.75" height="190" as="geometry" />
        </mxCell>
        <mxCell id="GZ9siTwBjqYdEHMc3zrV-21" value="- tag: String&lt;br&gt;- board: Board&lt;br&gt;- moveStartPos: Position&lt;br&gt;- moveEndPos: Position&lt;br&gt;- highlightPolygons: List&amp;lt;Position&amp;gt;" style="text;strokeColor=none;fillColor=none;align=left;verticalAlign=top;spacingLeft=4;spacingRight=4;overflow=hidden;rotatable=0;points=[[0,0.5],[1,0.5]];portConstraint=eastwest;whiteSpace=wrap;html=1;" parent="GZ9siTwBjqYdEHMc3zrV-20" vertex="1">
          <mxGeometry y="26" width="219.75" height="94" as="geometry" />
        </mxCell>
        <mxCell id="GZ9siTwBjqYdEHMc3zrV-22" value="" style="line;strokeWidth=1;fillColor=none;align=left;verticalAlign=middle;spacingTop=-1;spacingLeft=3;spacingRight=3;rotatable=0;labelPosition=right;points=[];portConstraint=eastwest;strokeColor=inherit;" parent="GZ9siTwBjqYdEHMc3zrV-20" vertex="1">
          <mxGeometry y="120" width="219.75" height="8" as="geometry" />
        </mxCell>
        <mxCell id="GZ9siTwBjqYdEHMc3zrV-23" value="&lt;p style=&quot;border-color: var(--border-color); margin: 0px 0px 0px 4px;&quot;&gt;+ getBoard(): Map&amp;lt;String, String&amp;gt;&lt;br style=&quot;border-color: var(--border-color);&quot;&gt;+ onClick(String): OnClickResponse&amp;nbsp;&lt;/p&gt;&lt;p style=&quot;border-color: var(--border-color); margin: 0px 0px 0px 4px;&quot;&gt;+ getTurn(): Color&lt;/p&gt;" style="text;strokeColor=none;fillColor=none;align=left;verticalAlign=top;spacingLeft=4;spacingRight=4;overflow=hidden;rotatable=0;points=[[0,0.5],[1,0.5]];portConstraint=eastwest;whiteSpace=wrap;html=1;" parent="GZ9siTwBjqYdEHMc3zrV-20" vertex="1">
          <mxGeometry y="128" width="219.75" height="62" as="geometry" />
        </mxCell>
        <mxCell id="GZ9siTwBjqYdEHMc3zrV-25" value="&lt;p style=&quot;margin:0px;margin-top:4px;text-align:center;&quot;&gt;Board&lt;/p&gt;&lt;hr size=&quot;1&quot;&gt;&amp;nbsp;- tag: String&lt;br&gt;&lt;p style=&quot;margin:0px;margin-left:4px;&quot;&gt;- turn: Colour&lt;/p&gt;&lt;p style=&quot;margin:0px;margin-left:4px;&quot;&gt;- gameOver: boolean&lt;/p&gt;&lt;p style=&quot;margin:0px;margin-left:4px;&quot;&gt;- winner: String&lt;/p&gt;&lt;p style=&quot;border-color: var(--border-color); margin: 0px 0px 0px 4px;&quot;&gt;# boardMap: Map&amp;lt;Position, BasePiece&amp;gt;&lt;/p&gt;&lt;p style=&quot;margin:0px;margin-left:4px;&quot;&gt;# wallPieceMapping: Map&amp;lt;BasePiece, Position&amp;gt;&amp;nbsp;&lt;/p&gt;&lt;hr size=&quot;1&quot;&gt;&lt;p style=&quot;margin:0px;margin-left:4px;&quot;&gt;+ Board()&lt;/p&gt;&lt;p style=&quot;margin:0px;margin-left:4px;&quot;&gt;+ placeChessPieces(Colour): void&lt;/p&gt;&lt;p style=&quot;margin:0px;margin-left:4px;&quot;&gt;+ isGameOver(): boolean&lt;/p&gt;&lt;p style=&quot;margin:0px;margin-left:4px;&quot;&gt;+ getWinner(): String&lt;/p&gt;&lt;p style=&quot;margin:0px;margin-left:4px;&quot;&gt;+ move(Position, Position): void&lt;/p&gt;&lt;p style=&quot;margin:0px;margin-left:4px;&quot;&gt;+ isLegalMove(Position, Position): boolean&lt;/p&gt;&lt;p style=&quot;margin:0px;margin-left:4px;&quot;&gt;+ getTurn(): Colour&lt;/p&gt;&lt;p style=&quot;margin:0px;margin-left:4px;&quot;&gt;+ getPiece(Position): BasePiece&lt;/p&gt;&lt;p style=&quot;margin:0px;margin-left:4px;&quot;&gt;+ getWebViewBoard(): Map&amp;lt;String, String&amp;gt;&lt;/p&gt;&lt;p style=&quot;margin:0px;margin-left:4px;&quot;&gt;+ getPossibleMoves(Position): List&amp;lt;Position&amp;gt;&lt;br&gt;&lt;/p&gt;&lt;p style=&quot;margin:0px;margin-left:4px;&quot;&gt;+&amp;nbsp;isCurrentPlayersPiece(Position): boolean&lt;/p&gt;&lt;p style=&quot;margin:0px;margin-left:4px;&quot;&gt;- isCheck(Colour, Map&amp;lt;Position, BasePiece&amp;gt;): boolean&lt;br&gt;&lt;/p&gt;&lt;p style=&quot;margin:0px;margin-left:4px;&quot;&gt;- isCheckMate(Colour, Map&amp;lt;Position, BasePiece&amp;gt;): boolean&lt;br&gt;&lt;/p&gt;&lt;p style=&quot;margin:0px;margin-left:4px;&quot;&gt;- isCheckAfterLegalMove(Colour, Map&amp;lt;Position, BasePiece&amp;gt;, Position, Position): boolean&lt;br&gt;&lt;/p&gt;&lt;p style=&quot;margin:0px;margin-left:4px;&quot;&gt;- getKingPosition(Colour, Map&amp;lt;Position, BasePiece&amp;gt;): Position&lt;br&gt;&lt;/p&gt;&lt;p style=&quot;margin:0px;margin-left:4px;&quot;&gt;&lt;br&gt;&lt;/p&gt;&lt;p style=&quot;margin:0px;margin-left:4px;&quot;&gt;&lt;br&gt;&lt;/p&gt;&lt;p style=&quot;margin:0px;margin-left:4px;&quot;&gt;&lt;br&gt;&lt;/p&gt;&lt;p style=&quot;margin:0px;margin-left:4px;&quot;&gt;&lt;br&gt;&lt;/p&gt;" style="verticalAlign=top;align=left;overflow=fill;fontSize=12;fontFamily=Helvetica;html=1;whiteSpace=wrap;" parent="WIyWlLk6GJQsqaUBKTNV-1" vertex="1">
          <mxGeometry x="650.13" y="410" width="350" height="370" as="geometry" />
        </mxCell>
        <mxCell id="GZ9siTwBjqYdEHMc3zrV-40" style="edgeStyle=orthogonalEdgeStyle;rounded=0;orthogonalLoop=1;jettySize=auto;html=1;exitX=0.5;exitY=0;exitDx=0;exitDy=0;" parent="WIyWlLk6GJQsqaUBKTNV-1" source="GZ9siTwBjqYdEHMc3zrV-38" target="GZ9siTwBjqYdEHMc3zrV-35" edge="1">
          <mxGeometry relative="1" as="geometry" />
        </mxCell>
        <mxCell id="GZ9siTwBjqYdEHMc3zrV-35" value="&lt;p style=&quot;margin:0px;margin-top:4px;text-align:center;&quot;&gt;&lt;b&gt;&amp;lt;&amp;lt;enumeration&amp;gt;&amp;gt;&lt;/b&gt;&lt;/p&gt;&lt;p style=&quot;margin:0px;margin-top:4px;text-align:center;&quot;&gt;&lt;b&gt;Colour&lt;/b&gt;&lt;/p&gt;&lt;hr size=&quot;1&quot;&gt;&lt;p style=&quot;margin:0px;margin-left:4px;&quot;&gt;Blue&lt;/p&gt;&lt;p style=&quot;margin:0px;margin-left:4px;&quot;&gt;Green&lt;/p&gt;&lt;p style=&quot;margin:0px;margin-left:4px;&quot;&gt;Red&lt;/p&gt;&lt;hr size=&quot;1&quot;&gt;&lt;p style=&quot;margin:0px;margin-left:4px;&quot;&gt;+ toString(): String&lt;/p&gt;" style="verticalAlign=top;align=left;overflow=fill;fontSize=12;fontFamily=Helvetica;html=1;whiteSpace=wrap;" parent="WIyWlLk6GJQsqaUBKTNV-1" vertex="1">
          <mxGeometry x="1180" y="80" width="160" height="140" as="geometry" />
        </mxCell>
        <mxCell id="GZ9siTwBjqYdEHMc3zrV-41" style="edgeStyle=orthogonalEdgeStyle;rounded=0;orthogonalLoop=1;jettySize=auto;html=1;exitX=0.5;exitY=0;exitDx=0;exitDy=0;" parent="WIyWlLk6GJQsqaUBKTNV-1" source="GZ9siTwBjqYdEHMc3zrV-38" target="GZ9siTwBjqYdEHMc3zrV-36" edge="1">
          <mxGeometry relative="1" as="geometry" />
        </mxCell>
        <mxCell id="GZ9siTwBjqYdEHMc3zrV-36" value="&lt;p style=&quot;margin:0px;margin-top:4px;text-align:center;&quot;&gt;&lt;b&gt;&amp;lt;&amp;lt;enumeration&amp;gt;&amp;gt;&lt;/b&gt;&lt;/p&gt;&lt;p style=&quot;margin:0px;margin-top:4px;text-align:center;&quot;&gt;&lt;b&gt;Direction&lt;/b&gt;&lt;/p&gt;&lt;hr size=&quot;1&quot;&gt;&lt;p style=&quot;margin:0px;margin-left:4px;&quot;&gt;&lt;font style=&quot;font-size: 10px;&quot;&gt;FORWARD&lt;/font&gt;&lt;/p&gt;&lt;p style=&quot;margin:0px;margin-left:4px;&quot;&gt;&lt;font style=&quot;font-size: 10px;&quot;&gt;BACKWARD&lt;/font&gt;&lt;/p&gt;&lt;p style=&quot;margin:0px;margin-left:4px;&quot;&gt;&lt;font style=&quot;font-size: 10px;&quot;&gt;LEFT&lt;/font&gt;&lt;/p&gt;&lt;p style=&quot;margin:0px;margin-left:4px;&quot;&gt;&lt;font style=&quot;font-size: 10px;&quot;&gt;RIGHT&lt;/font&gt;&lt;/p&gt;&lt;hr size=&quot;1&quot;&gt;&lt;p style=&quot;margin:0px;margin-left:4px;&quot;&gt;+ toString(): String&lt;/p&gt;" style="verticalAlign=top;align=left;overflow=fill;fontSize=12;fontFamily=Helvetica;html=1;whiteSpace=wrap;" parent="WIyWlLk6GJQsqaUBKTNV-1" vertex="1">
          <mxGeometry x="1427" y="80" width="160" height="140" as="geometry" />
        </mxCell>
        <mxCell id="GZ9siTwBjqYdEHMc3zrV-38" value="&lt;p style=&quot;margin:0px;margin-top:4px;text-align:center;&quot;&gt;&lt;b&gt;BasePiece&lt;/b&gt;&lt;/p&gt;&lt;hr size=&quot;1&quot;&gt;&lt;p style=&quot;margin:0px;margin-left:4px;&quot;&gt;- tag: String&lt;/p&gt;&lt;p style=&quot;margin:0px;margin-left:4px;&quot;&gt;# colour: Colour&lt;/p&gt;&lt;p style=&quot;margin:0px;margin-left:4px;&quot;&gt;# directions: Direction[][]&lt;/p&gt;&lt;hr size=&quot;1&quot;&gt;&lt;p style=&quot;margin:0px;margin-left:4px;&quot;&gt;+ BasePiece(Colour)&lt;/p&gt;&lt;p style=&quot;margin:0px;margin-left:4px;&quot;&gt;# setupDirections(): void&lt;/p&gt;&lt;p style=&quot;margin:0px;margin-left:4px;&quot;&gt;+ isLegalMove(Map&amp;lt;Position, BasePiece&amp;gt;, Position, Position): boolean&lt;br&gt;&lt;/p&gt;&lt;p style=&quot;margin:0px;margin-left:4px;&quot;&gt;# getWallPieceMapping(Map&amp;lt;Position, BasePiece&amp;gt;): Map&amp;lt;BasePiece, Position&amp;gt;&lt;br&gt;&lt;/p&gt;&lt;p style=&quot;margin:0px;margin-left:4px;&quot;&gt;# canMove(Map&amp;lt;Position, BasePiece&amp;gt;, Position, Position): boolean&lt;/p&gt;&lt;p style=&quot;margin:0px;margin-left:4px;&quot;&gt;+ getHighlightPolygons(Map&amp;lt;Position, BasePiece&amp;gt; boardMap, Position start): List&amp;lt;Position&amp;gt;&lt;/p&gt;&lt;p style=&quot;margin:0px;margin-left:4px;&quot;&gt;+ getColour(): Colour&lt;/p&gt;" style="verticalAlign=top;align=left;overflow=fill;fontSize=12;fontFamily=Helvetica;html=1;whiteSpace=wrap;" parent="WIyWlLk6GJQsqaUBKTNV-1" vertex="1">
          <mxGeometry x="1210" y="300" width="260" height="270" as="geometry" />
        </mxCell>
        <mxCell id="GZ9siTwBjqYdEHMc3zrV-43" style="edgeStyle=orthogonalEdgeStyle;rounded=0;orthogonalLoop=1;jettySize=auto;html=1;entryX=1;entryY=0.5;entryDx=0;entryDy=0;endArrow=diamondThin;endFill=1;" parent="WIyWlLk6GJQsqaUBKTNV-1" source="GZ9siTwBjqYdEHMc3zrV-39" target="GZ9siTwBjqYdEHMc3zrV-25" edge="1">
          <mxGeometry relative="1" as="geometry" />
        </mxCell>
        <mxCell id="GZ9siTwBjqYdEHMc3zrV-39" value="&lt;p style=&quot;margin:0px;margin-top:4px;text-align:center;&quot;&gt;&lt;b&gt;&amp;lt;&amp;lt;enumeration&amp;gt;&amp;gt;&lt;/b&gt;&lt;/p&gt;&lt;p style=&quot;margin:0px;margin-top:4px;text-align:center;&quot;&gt;&lt;b&gt;Position&lt;/b&gt;&lt;/p&gt;&lt;hr size=&quot;1&quot;&gt;&lt;p style=&quot;margin:0px;margin-left:4px;&quot;&gt;&lt;span style=&quot;background-color: initial;&quot;&gt;BA1..BH4&lt;/span&gt;&lt;/p&gt;&lt;p style=&quot;margin:0px;margin-left:4px;&quot;&gt;&lt;span style=&quot;background-color: initial;&quot;&gt;GA1..GH4&lt;/span&gt;&lt;/p&gt;&lt;p style=&quot;margin:0px;margin-left:4px;&quot;&gt;&lt;span style=&quot;background-color: initial;&quot;&gt;RA1..RH4&lt;/span&gt;&lt;/p&gt;&lt;p style=&quot;margin:0px;margin-left:4px;&quot;&gt;&lt;span style=&quot;background-color: initial;&quot;&gt;&lt;br&gt;&lt;/span&gt;&lt;/p&gt;- colour: Colour&lt;br&gt;- row: int&lt;br&gt;- column: int&lt;br&gt;&lt;hr size=&quot;1&quot;&gt;&lt;p style=&quot;margin:0px;margin-left:4px;&quot;&gt;+ Position(Colour, int, int)&lt;/p&gt;&lt;p style=&quot;margin:0px;margin-left:4px;&quot;&gt;+ get(int): Position&amp;nbsp;{exceptions=InvalidPositionException}&lt;/p&gt;&lt;p style=&quot;margin:0px;margin-left:4px;&quot;&gt;+ neighbour(Direction): Position&lt;/p&gt;&lt;p style=&quot;margin:0px;margin-left:4px;&quot;&gt;- getColumnChar(int): char&lt;/p&gt;&lt;p style=&quot;margin:0px;margin-left:4px;&quot;&gt;+ getRow(): int&lt;/p&gt;&lt;p style=&quot;margin:0px;margin-left:4px;&quot;&gt;+ getColumn(): int&lt;/p&gt;&lt;p style=&quot;margin:0px;margin-left:4px;&quot;&gt;+ getColour(): Colour&lt;/p&gt;&lt;p style=&quot;margin:0px;margin-left:4px;&quot;&gt;+ toString(): String&lt;/p&gt;" style="verticalAlign=top;align=left;overflow=fill;fontSize=12;fontFamily=Helvetica;html=1;whiteSpace=wrap;" parent="WIyWlLk6GJQsqaUBKTNV-1" vertex="1">
          <mxGeometry x="1200" y="630" width="320.25" height="280" as="geometry" />
        </mxCell>
        <mxCell id="GZ9siTwBjqYdEHMc3zrV-46" value="&lt;p style=&quot;margin:0px;margin-top:4px;text-align:center;&quot;&gt;&lt;b&gt;BoardAdapter&lt;/b&gt;&lt;/p&gt;&lt;hr size=&quot;1&quot;&gt;&lt;p style=&quot;margin:0px;margin-left:4px;&quot;&gt;+ convertModelBoardToViewBoard(Map&amp;lt;Position, BasePiece&amp;gt;): Map&amp;lt;String, String&amp;gt;&lt;/p&gt;&lt;p style=&quot;margin:0px;margin-left:4px;&quot;&gt;+ convertHighlightPolygonsToViewBoard(List&amp;lt;Position&amp;gt;): List&amp;lt;String&amp;gt;&lt;/p&gt;&lt;p style=&quot;margin:0px;margin-left:4px;&quot;&gt;+ calculatePolygonId(String): int&lt;/p&gt;" style="verticalAlign=top;align=left;overflow=fill;fontSize=12;fontFamily=Helvetica;html=1;whiteSpace=wrap;" parent="WIyWlLk6GJQsqaUBKTNV-1" vertex="1">
          <mxGeometry x="94.38" y="679" width="481" height="80" as="geometry" />
        </mxCell>
        <mxCell id="GZ9siTwBjqYdEHMc3zrV-50" value="&lt;p style=&quot;margin:0px;margin-top:4px;text-align:center;&quot;&gt;&lt;b&gt;InvalidPositionException&lt;/b&gt;&lt;/p&gt;&lt;hr size=&quot;1&quot;&gt;&lt;p style=&quot;margin:0px;margin-left:4px;&quot;&gt;+&amp;nbsp;&lt;b style=&quot;border-color: var(--border-color); text-align: center;&quot;&gt;InvalidPositionException&lt;/b&gt;(&lt;span style=&quot;background-color: rgb(255, 255, 255); font-family: &amp;quot;JetBrains Mono&amp;quot;, monospace; font-size: 9.8pt;&quot;&gt;String&lt;/span&gt;&lt;span style=&quot;background-color: initial;&quot;&gt;)&lt;/span&gt;&lt;/p&gt;" style="verticalAlign=top;align=left;overflow=fill;fontSize=12;fontFamily=Helvetica;html=1;whiteSpace=wrap;" parent="WIyWlLk6GJQsqaUBKTNV-1" vertex="1">
          <mxGeometry x="100" y="1080" width="220" height="60" as="geometry" />
        </mxCell>
        <mxCell id="GZ9siTwBjqYdEHMc3zrV-51" value="Exception" style="html=1;whiteSpace=wrap;" parent="WIyWlLk6GJQsqaUBKTNV-1" vertex="1">
          <mxGeometry x="310" y="1000" width="88" height="30" as="geometry" />
        </mxCell>
        <mxCell id="mJ5BoDZWjUwXYIF-GXy7-4" style="edgeStyle=orthogonalEdgeStyle;rounded=0;orthogonalLoop=1;jettySize=auto;html=1;endArrow=diamondThin;endFill=1;entryX=1.004;entryY=0.352;entryDx=0;entryDy=0;entryPerimeter=0;" edge="1" parent="WIyWlLk6GJQsqaUBKTNV-1" target="GZ9siTwBjqYdEHMc3zrV-25">
          <mxGeometry relative="1" as="geometry">
            <mxPoint x="1210" y="440" as="sourcePoint" />
            <mxPoint x="1060" y="540" as="targetPoint" />
            <Array as="points">
              <mxPoint x="1210" y="440" />
              <mxPoint x="1100" y="440" />
              <mxPoint x="1100" y="540" />
            </Array>
          </mxGeometry>
        </mxCell>
        <mxCell id="mJ5BoDZWjUwXYIF-GXy7-6" value="BasePiece" style="swimlane;fontStyle=0;childLayout=stackLayout;horizontal=1;startSize=26;fillColor=none;horizontalStack=0;resizeParent=1;resizeParentMax=0;resizeLast=0;collapsible=1;marginBottom=0;whiteSpace=wrap;html=1;" vertex="1" parent="WIyWlLk6GJQsqaUBKTNV-1">
          <mxGeometry x="990" y="838" width="140" height="52" as="geometry" />
        </mxCell>
        <mxCell id="mJ5BoDZWjUwXYIF-GXy7-10" value="Bishop" style="swimlane;fontStyle=0;childLayout=stackLayout;horizontal=1;startSize=26;fillColor=none;horizontalStack=0;resizeParent=1;resizeParentMax=0;resizeLast=0;collapsible=1;marginBottom=0;whiteSpace=wrap;html=1;" vertex="1" parent="WIyWlLk6GJQsqaUBKTNV-1">
          <mxGeometry x="591" y="976" width="140" height="52" as="geometry" />
        </mxCell>
        <mxCell id="mJ5BoDZWjUwXYIF-GXy7-11" value="Queen" style="swimlane;fontStyle=0;childLayout=stackLayout;horizontal=1;startSize=26;fillColor=none;horizontalStack=0;resizeParent=1;resizeParentMax=0;resizeLast=0;collapsible=1;marginBottom=0;whiteSpace=wrap;html=1;" vertex="1" parent="WIyWlLk6GJQsqaUBKTNV-1">
          <mxGeometry x="753" y="976" width="140" height="52" as="geometry" />
        </mxCell>
        <mxCell id="mJ5BoDZWjUwXYIF-GXy7-12" value="King" style="swimlane;fontStyle=0;childLayout=stackLayout;horizontal=1;startSize=26;fillColor=none;horizontalStack=0;resizeParent=1;resizeParentMax=0;resizeLast=0;collapsible=1;marginBottom=0;whiteSpace=wrap;html=1;" vertex="1" parent="WIyWlLk6GJQsqaUBKTNV-1">
          <mxGeometry x="912" y="976" width="140" height="52" as="geometry" />
        </mxCell>
        <mxCell id="mJ5BoDZWjUwXYIF-GXy7-13" value="King" style="swimlane;fontStyle=0;childLayout=stackLayout;horizontal=1;startSize=26;fillColor=none;horizontalStack=0;resizeParent=1;resizeParentMax=0;resizeLast=0;collapsible=1;marginBottom=0;whiteSpace=wrap;html=1;" vertex="1" parent="WIyWlLk6GJQsqaUBKTNV-1">
          <mxGeometry x="1072" y="976" width="140" height="52" as="geometry" />
        </mxCell>
        <mxCell id="mJ5BoDZWjUwXYIF-GXy7-14" value="Knight" style="swimlane;fontStyle=0;childLayout=stackLayout;horizontal=1;startSize=26;fillColor=none;horizontalStack=0;resizeParent=1;resizeParentMax=0;resizeLast=0;collapsible=1;marginBottom=0;whiteSpace=wrap;html=1;" vertex="1" parent="WIyWlLk6GJQsqaUBKTNV-1">
          <mxGeometry x="1232" y="976" width="140" height="52" as="geometry" />
        </mxCell>
        <mxCell id="mJ5BoDZWjUwXYIF-GXy7-15" value="Rook" style="swimlane;fontStyle=0;childLayout=stackLayout;horizontal=1;startSize=26;fillColor=none;horizontalStack=0;resizeParent=1;resizeParentMax=0;resizeLast=0;collapsible=1;marginBottom=0;whiteSpace=wrap;html=1;" vertex="1" parent="WIyWlLk6GJQsqaUBKTNV-1">
          <mxGeometry x="1392" y="976" width="140" height="52" as="geometry" />
        </mxCell>
        <mxCell id="mJ5BoDZWjUwXYIF-GXy7-21" value="Extends" style="endArrow=block;endSize=16;endFill=0;html=1;rounded=0;entryX=0.5;entryY=1;entryDx=0;entryDy=0;exitX=0.5;exitY=0;exitDx=0;exitDy=0;" edge="1" parent="WIyWlLk6GJQsqaUBKTNV-1" source="mJ5BoDZWjUwXYIF-GXy7-10" target="mJ5BoDZWjUwXYIF-GXy7-6">
          <mxGeometry x="0.7196" y="20" width="160" relative="1" as="geometry">
            <mxPoint x="680" y="858" as="sourcePoint" />
            <mxPoint x="840" y="858" as="targetPoint" />
            <Array as="points">
              <mxPoint x="661" y="938" />
              <mxPoint x="1060" y="938" />
            </Array>
            <mxPoint as="offset" />
          </mxGeometry>
        </mxCell>
        <mxCell id="mJ5BoDZWjUwXYIF-GXy7-22" value="" style="endArrow=none;html=1;rounded=0;exitX=0.5;exitY=0;exitDx=0;exitDy=0;" edge="1" parent="WIyWlLk6GJQsqaUBKTNV-1" source="mJ5BoDZWjUwXYIF-GXy7-11">
          <mxGeometry width="50" height="50" relative="1" as="geometry">
            <mxPoint x="740" y="888" as="sourcePoint" />
            <mxPoint x="823" y="938" as="targetPoint" />
          </mxGeometry>
        </mxCell>
        <mxCell id="mJ5BoDZWjUwXYIF-GXy7-23" value="" style="endArrow=none;html=1;rounded=0;exitX=0.5;exitY=0;exitDx=0;exitDy=0;" edge="1" parent="WIyWlLk6GJQsqaUBKTNV-1">
          <mxGeometry width="50" height="50" relative="1" as="geometry">
            <mxPoint x="982" y="977" as="sourcePoint" />
            <mxPoint x="982" y="939" as="targetPoint" />
          </mxGeometry>
        </mxCell>
        <mxCell id="mJ5BoDZWjUwXYIF-GXy7-24" value="" style="endArrow=none;html=1;rounded=0;exitX=0.608;exitY=0.001;exitDx=0;exitDy=0;exitPerimeter=0;" edge="1" parent="WIyWlLk6GJQsqaUBKTNV-1">
          <mxGeometry width="50" height="50" relative="1" as="geometry">
            <mxPoint x="1462.1200000000003" y="974.0519999999999" as="sourcePoint" />
            <mxPoint x="1045" y="938" as="targetPoint" />
            <Array as="points">
              <mxPoint x="1462" y="938" />
            </Array>
          </mxGeometry>
        </mxCell>
        <mxCell id="mJ5BoDZWjUwXYIF-GXy7-25" value="" style="endArrow=none;html=1;rounded=0;exitX=0.5;exitY=0;exitDx=0;exitDy=0;" edge="1" parent="WIyWlLk6GJQsqaUBKTNV-1">
          <mxGeometry width="50" height="50" relative="1" as="geometry">
            <mxPoint x="1142" y="976" as="sourcePoint" />
            <mxPoint x="1142" y="938" as="targetPoint" />
          </mxGeometry>
        </mxCell>
        <mxCell id="mJ5BoDZWjUwXYIF-GXy7-26" value="" style="endArrow=none;html=1;rounded=0;exitX=0.5;exitY=0;exitDx=0;exitDy=0;" edge="1" parent="WIyWlLk6GJQsqaUBKTNV-1">
          <mxGeometry width="50" height="50" relative="1" as="geometry">
            <mxPoint x="1305" y="976" as="sourcePoint" />
            <mxPoint x="1305" y="938" as="targetPoint" />
          </mxGeometry>
        </mxCell>
        <mxCell id="mJ5BoDZWjUwXYIF-GXy7-27" value="Jester" style="swimlane;fontStyle=0;childLayout=stackLayout;horizontal=1;startSize=26;fillColor=none;horizontalStack=0;resizeParent=1;resizeParentMax=0;resizeLast=0;collapsible=1;marginBottom=0;whiteSpace=wrap;html=1;" vertex="1" parent="WIyWlLk6GJQsqaUBKTNV-1">
          <mxGeometry x="1233" y="1071" width="140" height="52" as="geometry" />
        </mxCell>
        <mxCell id="mJ5BoDZWjUwXYIF-GXy7-28" value="Wall" style="swimlane;fontStyle=0;childLayout=stackLayout;horizontal=1;startSize=26;fillColor=none;horizontalStack=0;resizeParent=1;resizeParentMax=0;resizeLast=0;collapsible=1;marginBottom=0;whiteSpace=wrap;html=1;" vertex="1" parent="WIyWlLk6GJQsqaUBKTNV-1">
          <mxGeometry x="1393" y="1071" width="140" height="52" as="geometry" />
        </mxCell>
        <mxCell id="mJ5BoDZWjUwXYIF-GXy7-30" value="Extends" style="endArrow=block;endSize=16;endFill=0;html=1;rounded=0;entryX=0.5;entryY=1;entryDx=0;entryDy=0;exitX=0.5;exitY=0;exitDx=0;exitDy=0;" edge="1" parent="WIyWlLk6GJQsqaUBKTNV-1" source="mJ5BoDZWjUwXYIF-GXy7-27" target="mJ5BoDZWjUwXYIF-GXy7-14">
          <mxGeometry x="-0.375" y="32" width="160" relative="1" as="geometry">
            <mxPoint x="1302" y="1060" as="sourcePoint" />
            <mxPoint x="1170" y="1084.23" as="targetPoint" />
            <mxPoint y="-1" as="offset" />
          </mxGeometry>
        </mxCell>
        <mxCell id="mJ5BoDZWjUwXYIF-GXy7-31" value="Extends" style="endArrow=block;endSize=16;endFill=0;html=1;rounded=0;entryX=0.5;entryY=1;entryDx=0;entryDy=0;exitX=0.5;exitY=0;exitDx=0;exitDy=0;" edge="1" parent="WIyWlLk6GJQsqaUBKTNV-1" source="mJ5BoDZWjUwXYIF-GXy7-28">
          <mxGeometry x="-0.3125" y="-27" width="160" relative="1" as="geometry">
            <mxPoint x="1463" y="1061" as="sourcePoint" />
            <mxPoint x="1463" y="1029" as="targetPoint" />
            <mxPoint as="offset" />
          </mxGeometry>
        </mxCell>
        <mxCell id="mJ5BoDZWjUwXYIF-GXy7-32" value="" style="endArrow=none;html=1;rounded=0;exitX=1;exitY=0.5;exitDx=0;exitDy=0;" edge="1" parent="WIyWlLk6GJQsqaUBKTNV-1" source="GZ9siTwBjqYdEHMc3zrV-21">
          <mxGeometry width="50" height="50" relative="1" as="geometry">
            <mxPoint x="740" y="560" as="sourcePoint" />
            <mxPoint x="650" y="613" as="targetPoint" />
            <Array as="points">
              <mxPoint x="620" y="513" />
              <mxPoint x="620" y="613" />
            </Array>
          </mxGeometry>
        </mxCell>
        <mxCell id="mJ5BoDZWjUwXYIF-GXy7-33" value="&lt;p style=&quot;margin:0px;margin-top:4px;text-align:center;&quot;&gt;&lt;b&gt;InvalidMoveException&lt;/b&gt;&lt;/p&gt;&lt;hr size=&quot;1&quot;&gt;&lt;p style=&quot;margin:0px;margin-left:4px;&quot;&gt;+&amp;nbsp;&lt;b style=&quot;border-color: var(--border-color); text-align: center;&quot;&gt;InvalidMoveException&lt;/b&gt;(&lt;span style=&quot;background-color: rgb(255, 255, 255); font-family: &amp;quot;JetBrains Mono&amp;quot;, monospace; font-size: 9.8pt;&quot;&gt;String&lt;/span&gt;&lt;span style=&quot;background-color: initial;&quot;&gt;)&lt;/span&gt;&lt;/p&gt;" style="verticalAlign=top;align=left;overflow=fill;fontSize=12;fontFamily=Helvetica;html=1;whiteSpace=wrap;" vertex="1" parent="WIyWlLk6GJQsqaUBKTNV-1">
          <mxGeometry x="339.5" y="1080" width="220" height="60" as="geometry" />
        </mxCell>
        <mxCell id="mJ5BoDZWjUwXYIF-GXy7-35" value="Extends" style="endArrow=block;endSize=16;endFill=0;html=1;rounded=0;" edge="1" parent="WIyWlLk6GJQsqaUBKTNV-1">
          <mxGeometry x="0.3684" y="10" width="160" relative="1" as="geometry">
            <mxPoint x="210" y="1080" as="sourcePoint" />
            <mxPoint x="350" y="1030" as="targetPoint" />
            <Array as="points">
              <mxPoint x="210" y="1060" />
              <mxPoint x="350" y="1060" />
            </Array>
            <mxPoint as="offset" />
          </mxGeometry>
        </mxCell>
        <mxCell id="mJ5BoDZWjUwXYIF-GXy7-37" value="" style="endArrow=none;html=1;rounded=0;exitX=0.5;exitY=0;exitDx=0;exitDy=0;" edge="1" parent="WIyWlLk6GJQsqaUBKTNV-1" source="mJ5BoDZWjUwXYIF-GXy7-33">
          <mxGeometry width="50" height="50" relative="1" as="geometry">
            <mxPoint x="790" y="1130" as="sourcePoint" />
            <mxPoint x="350" y="1060" as="targetPoint" />
            <Array as="points">
              <mxPoint x="450" y="1060" />
              <mxPoint x="400" y="1060" />
            </Array>
          </mxGeometry>
        </mxCell>
        <mxCell id="mJ5BoDZWjUwXYIF-GXy7-38" value="&lt;p style=&quot;margin:0px;margin-top:4px;text-align:center;&quot;&gt;&lt;b&gt;Log&lt;/b&gt;&lt;/p&gt;&lt;hr size=&quot;1&quot;&gt;&lt;p style=&quot;margin:0px;margin-left:4px;&quot;&gt;+ d(String, Object)&lt;/p&gt;&lt;p style=&quot;margin:0px;margin-left:4px;&quot;&gt;+ e(String, Object)&lt;br&gt;&lt;/p&gt;" style="verticalAlign=top;align=left;overflow=fill;fontSize=12;fontFamily=Helvetica;html=1;whiteSpace=wrap;" vertex="1" parent="WIyWlLk6GJQsqaUBKTNV-1">
          <mxGeometry x="240" y="885" width="110" height="70" as="geometry" />
        </mxCell>
        <mxCell id="mJ5BoDZWjUwXYIF-GXy7-39" value="&lt;p style=&quot;margin:0px;margin-top:4px;text-align:center;&quot;&gt;&lt;b&gt;Util&lt;/b&gt;&lt;/p&gt;&lt;hr size=&quot;1&quot;&gt;&lt;p style=&quot;margin:0px;margin-left:4px;&quot;&gt;- tag: String&lt;/p&gt;&lt;hr size=&quot;1&quot;&gt;&lt;p style=&quot;margin:0px;margin-left:4px;&quot;&gt;+ toList(Set&amp;lt;T&amp;gt;): List&amp;lt;T&amp;gt;&lt;/p&gt;" style="verticalAlign=top;align=left;overflow=fill;fontSize=12;fontFamily=Helvetica;html=1;whiteSpace=wrap;" vertex="1" parent="WIyWlLk6GJQsqaUBKTNV-1">
          <mxGeometry x="80" y="875" width="140" height="80" as="geometry" />
        </mxCell>
        <mxCell id="mJ5BoDZWjUwXYIF-GXy7-40" value="&lt;p style=&quot;margin:0px;margin-top:4px;text-align:center;&quot;&gt;&lt;b&gt;MovementUtil&lt;/b&gt;&lt;/p&gt;&lt;hr size=&quot;1&quot;&gt;&lt;p style=&quot;margin:0px;margin-left:4px;&quot;&gt;- tag: String&lt;/p&gt;&lt;hr size=&quot;1&quot;&gt;&lt;p style=&quot;margin:0px;margin-left:4px;&quot;&gt;+ step(BasePiece, Direction[], Position): Position&lt;/p&gt;&lt;p style=&quot;margin:0px;margin-left:4px;&quot;&gt;+ step(BasePiece, Direction[], Position, boolean): Position&lt;br&gt;&lt;/p&gt;&lt;p style=&quot;margin:0px;margin-left:4px;&quot;&gt;+ stepOrNull(BasePiece, Direction[], Position): Position&lt;br&gt;&lt;/p&gt;&lt;p style=&quot;margin:0px;margin-left:4px;&quot;&gt;+ stepOrNull(BasePiece, Direction[], Position, boolean): Position&lt;br&gt;&lt;/p&gt;" style="verticalAlign=top;align=left;overflow=fill;fontSize=12;fontFamily=Helvetica;html=1;whiteSpace=wrap;" vertex="1" parent="WIyWlLk6GJQsqaUBKTNV-1">
          <mxGeometry x="371.25" y="775" width="204.13" height="180" as="geometry" />
        </mxCell>
        <mxCell id="mJ5BoDZWjUwXYIF-GXy7-42" value="&lt;p style=&quot;margin:0px;margin-top:4px;text-align:center;&quot;&gt;&lt;b&gt;OnClickResponse&lt;/b&gt;&lt;/p&gt;&lt;hr size=&quot;1&quot;&gt;&lt;p style=&quot;margin:0px;margin-left:4px;&quot;&gt;- highlightedPolygons: List&amp;lt;String&amp;gt;&lt;/p&gt;&lt;p style=&quot;margin:0px;margin-left:4px;&quot;&gt;- board: Map&amp;lt;String, String&amp;gt;&lt;/p&gt;&lt;p style=&quot;margin:0px;margin-left:4px;&quot;&gt;- isGameOver: boolean&lt;/p&gt;&lt;p style=&quot;margin:0px;margin-left:4px;&quot;&gt;- winner: String&lt;/p&gt;&lt;hr size=&quot;1&quot;&gt;&lt;p style=&quot;margin:0px;margin-left:4px;&quot;&gt;+ onClickResponse(Map&amp;lt;String, String&amp;gt;, List&amp;lt;String&amp;gt;)&lt;/p&gt;&lt;p style=&quot;margin:0px;margin-left:4px;&quot;&gt;+ getHighlightedPolygons(): List&amp;lt;String&amp;gt;&lt;br&gt;&lt;/p&gt;&lt;p style=&quot;margin:0px;margin-left:4px;&quot;&gt;+ getBoard(): Map&amp;lt;String, String&amp;gt;&lt;br&gt;&lt;/p&gt;&lt;p style=&quot;margin:0px;margin-left:4px;&quot;&gt;+ setGameOver(String): void&lt;/p&gt;&lt;p style=&quot;margin:0px;margin-left:4px;&quot;&gt;+ isGameOver(): boolean&lt;/p&gt;&lt;p style=&quot;margin:0px;margin-left:4px;&quot;&gt;+ getWinner(): String&lt;/p&gt;&lt;p style=&quot;margin:0px;margin-left:4px;&quot;&gt;+ toString(): String&lt;/p&gt;" style="verticalAlign=top;align=left;overflow=fill;fontSize=12;fontFamily=Helvetica;html=1;whiteSpace=wrap;" vertex="1" parent="WIyWlLk6GJQsqaUBKTNV-1">
          <mxGeometry x="105.87" y="400" width="204.13" height="230" as="geometry" />
        </mxCell>
        <mxCell id="mJ5BoDZWjUwXYIF-GXy7-43" value="Utility" style="text;align=center;fontStyle=1;verticalAlign=middle;spacingLeft=3;spacingRight=3;strokeColor=none;rotatable=0;points=[[0,0.5],[1,0.5]];portConstraint=eastwest;html=1;" vertex="1" parent="WIyWlLk6GJQsqaUBKTNV-1">
          <mxGeometry x="286" y="653" width="80" height="26" as="geometry" />
        </mxCell>
        <mxCell id="mJ5BoDZWjUwXYIF-GXy7-46" style="edgeStyle=orthogonalEdgeStyle;rounded=0;orthogonalLoop=1;jettySize=auto;html=1;endArrow=diamondThin;endFill=1;" edge="1" parent="WIyWlLk6GJQsqaUBKTNV-1">
          <mxGeometry relative="1" as="geometry">
            <mxPoint x="310" y="513" as="sourcePoint" />
            <mxPoint x="371" y="513" as="targetPoint" />
            <Array as="points">
              <mxPoint x="344" y="513" />
              <mxPoint x="344" y="513" />
            </Array>
          </mxGeometry>
        </mxCell>
      </root>
    </mxGraphModel>
  </diagram>
</mxfile>
